<svg width="48" height="48" viewBox="0 0 48 48" fill="none" xmlns="http://www.w3.org/2000/svg">
<g clip-path="url(#clip0_85_165)">
<path d="M15.004 0H20.16V2.156H17.16V4.312H20.16V6.468H15.004V0ZM21.19 0H26.348V1.876H23.348V2.25H26.348V6.562H21.19V4.594H24.19V4.218H21.19V0ZM27.38 0H32.534V1.876H29.534V2.25H32.534V6.562H27.38V4.594H30.38V4.218H27.38V0Z" fill="#1E1E1E"/>
<path fill-rule="evenodd" clip-rule="evenodd" d="M23.982 48L10.094 44.144L6 9.43396H42L37.908 44.14L23.982 48ZM14.094 25.146L14.476 29.402H29.23L28.736 34.922L23.988 36.206H23.984L19.244 34.926L18.94 31.532H14.666L15.262 38.216L23.982 40.636L32.716 38.216L33.78 26.288L33.884 25.146L34.652 16.528H13.328L13.716 20.786H29.988L29.6 25.146H14.094Z" fill="#1E1E1E"/>
</g>
<defs>
<clipPath id="clip0_85_165">
<rect width="48" height="48" fill="white"/>
</clipPath>
</defs>
</svg>
