<svg width="48" height="48" viewBox="0 0 48 48" fill="none" xmlns="http://www.w3.org/2000/svg">
<path fill-rule="evenodd" clip-rule="evenodd" d="M17.3339 18.834C16.6555 18.834 15.9838 18.9676 15.357 19.2272C14.7302 19.4869 14.1607 19.8674 13.681 20.3471C13.2013 20.8268 12.8208 21.3963 12.5612 22.0231C12.3016 22.6498 12.1679 23.3216 12.1679 24C12.1679 24.6784 12.3016 25.3502 12.5612 25.9769C12.8208 26.6037 13.2013 27.1732 13.681 27.6529C14.1607 28.1326 14.7302 28.5131 15.357 28.7728C15.9838 29.0324 16.6555 29.166 17.3339 29.166H22.4999V24.104C22.4991 24.0347 22.4991 23.9653 22.4999 23.896V18.834H17.3339ZM22.4999 15.834H17.3339C15.9636 15.834 14.6493 15.2896 13.6803 14.3206C12.7113 13.3516 12.1669 12.0374 12.1669 10.667C12.1669 9.29663 12.7113 7.98238 13.6803 7.01338C14.6493 6.04438 15.9636 5.5 17.3339 5.5H22.4999V15.834ZM25.4999 5.5V15.834H30.6659C32.0187 15.8074 33.3071 15.2513 34.2544 14.2852C35.2017 13.3191 35.7323 12.02 35.7323 10.667C35.7323 9.31397 35.2017 8.0149 34.2544 7.04879C33.3071 6.08269 32.0187 5.52662 30.6659 5.5H25.4999ZM30.6659 18.832C29.3099 18.8318 28.0082 19.3648 27.0417 20.316C26.0752 21.2671 25.5215 22.5602 25.4999 23.916V24.082C25.5165 25.1 25.8335 26.0904 26.4111 26.9288C26.9887 27.7673 27.8012 28.4163 28.7465 28.7945C29.6918 29.1726 30.7278 29.263 31.7243 29.0543C32.7208 28.8456 33.6334 28.347 34.3475 27.6213C35.0616 26.8956 35.5454 25.9751 35.738 24.9753C35.9306 23.9756 35.8235 22.9412 35.4301 22.0021C35.0368 21.0631 34.3747 20.2612 33.5271 19.6971C32.6795 19.1331 31.6841 18.8321 30.6659 18.832ZM17.3339 32.166C16.3117 32.1656 15.3123 32.4684 14.4622 33.036C13.6121 33.6036 12.9494 34.4106 12.5579 35.3549C12.1664 36.2992 12.0638 37.3384 12.263 38.341C12.4622 39.3436 12.9542 40.2647 13.6769 40.9876C14.3996 41.7106 15.3204 42.203 16.323 42.4025C17.3255 42.6021 18.3647 42.4999 19.3092 42.1088C20.2536 41.7177 21.0609 41.0553 21.6288 40.2054C22.1968 39.3555 22.4999 38.3562 22.4999 37.334V32.166H17.3339Z" fill="#1E1E1E"/>
</svg>
