<svg width="48" height="48" viewBox="0 0 48 48" fill="none" xmlns="http://www.w3.org/2000/svg">
<g clip-path="url(#clip0_85_170)">
<mask id="mask0_85_170" style="mask-type:luminance" maskUnits="userSpaceOnUse" x="0" y="0" width="48" height="48">
<path d="M0 0H48V48H0V0Z" fill="white"/>
</mask>
<g mask="url(#mask0_85_170)">
<path d="M22.428 0.01225C22.324 0.02225 21.996 0.05625 21.7 0.07825C14.884 0.69425 8.5 4.37225 4.452 10.0262C2.2166 13.1297 0.76344 16.7269 0.216 20.5122C0.024 21.8322 0 22.2202 0 24.0082C0 25.7962 0.024 26.1862 0.216 27.5042C1.52 36.5182 7.936 44.0903 16.634 46.8963C18.192 47.3983 19.834 47.7403 21.7 47.9483C22.428 48.0283 25.572 48.0283 26.3 47.9483C29.522 47.5903 32.254 46.7923 34.946 45.4183C35.36 45.2083 35.44 45.1503 35.384 45.1043C34.0672 43.3677 32.7638 41.621 31.474 39.8643L27.636 34.6783L22.828 27.5602C21.2282 25.1795 19.6135 22.8088 17.984 20.4482C17.966 20.4422 17.948 23.6042 17.938 27.4683C17.924 34.2282 17.918 34.5003 17.834 34.6603C17.7521 34.847 17.6059 34.9981 17.422 35.0863C17.272 35.1623 17.142 35.1763 16.432 35.1763H15.62L15.404 35.0403C15.2703 34.9559 15.1619 34.837 15.09 34.6963L14.99 34.4863L15 25.0782L15.014 15.6663L15.16 15.4823C15.2583 15.3672 15.3761 15.2704 15.508 15.1962C15.7 15.1023 15.774 15.0942 16.588 15.0942C17.544 15.0942 17.704 15.1302 17.952 15.4023C18.022 15.4783 20.626 19.4022 23.742 24.1262L33.21 38.4703L37.01 44.2263L37.204 44.1003C39.0328 42.8844 40.6908 41.4295 42.134 39.7743C45.1583 36.3128 47.1201 32.0526 47.784 27.5042C47.976 26.1842 48 25.7962 48 24.0082C48 22.2202 47.976 21.8322 47.784 20.5122C46.48 11.5002 40.064 3.92625 31.366 1.12025C29.7404 0.603388 28.0664 0.252925 26.37 0.07425C25.918 0.02625 22.818 -0.02575 22.43 0.01425M32.256 14.5343C32.3675 14.5904 32.4668 14.6681 32.5482 14.7629C32.6295 14.8576 32.6913 14.9675 32.73 15.0863C32.766 15.2063 32.776 17.8162 32.766 23.6962L32.752 32.1323L31.266 29.8522L29.774 27.5723V21.4403C29.774 17.4743 29.792 15.2462 29.82 15.1382C29.8533 15.0133 29.9116 14.8965 29.9913 14.7947C30.0711 14.6929 30.1706 14.6084 30.284 14.5462C30.478 14.4462 30.548 14.4382 31.284 14.4382C31.978 14.4382 32.1 14.4482 32.256 14.5322" fill="#1E1E1E"/>
</g>
</g>
<defs>
<clipPath id="clip0_85_170">
<rect width="48" height="48" fill="white"/>
</clipPath>
</defs>
</svg>
