<svg width="48" height="48" viewBox="0 0 48 48" fill="none" xmlns="http://www.w3.org/2000/svg">
<g clip-path="url(#clip0_85_179)">
<path d="M24 47.912C23.316 47.912 22.68 47.734 22.086 47.426L16.028 43.95C15.118 43.466 15.574 43.29 15.848 43.202C17.076 42.806 17.304 42.718 18.58 42.012C18.716 41.924 18.9 41.968 19.036 42.056L23.682 44.742C23.862 44.83 24.092 44.83 24.228 44.742L42.402 34.574C42.582 34.486 42.674 34.31 42.674 34.09V13.798C42.674 13.578 42.584 13.402 42.402 13.314L24.228 3.19197C24.046 3.10397 23.818 3.10397 23.682 3.19197L5.508 13.314C5.326 13.402 5.234 13.622 5.234 13.798V34.09C5.234 34.266 5.326 34.486 5.508 34.574L10.472 37.348C13.16 38.668 14.844 37.128 14.844 35.588V15.56C14.844 15.296 15.072 15.032 15.392 15.032H17.714C17.988 15.032 18.26 15.252 18.26 15.56V35.586C18.26 39.064 16.302 41.088 12.886 41.088C11.838 41.088 11.018 41.088 8.696 39.988L3.914 37.348C3.33777 37.0311 2.85657 36.5662 2.52009 36.0012C2.18362 35.4362 2.00408 34.7916 2 34.134V13.842C2 12.522 2.728 11.29 3.914 10.63L22.088 0.459973C22.6797 0.156545 23.3351 -0.00170898 24 -0.00170898C24.6649 -0.00170898 25.3203 0.156545 25.912 0.459973L44.088 10.628C45.272 11.288 46 12.52 46 13.84V34.132C46 35.452 45.272 36.684 44.088 37.346L25.914 47.512C25.3099 47.7738 24.6584 47.9086 24 47.908M29.602 33.954C21.632 33.954 19.992 30.434 19.992 27.44C19.992 27.176 20.22 26.912 20.538 26.912H22.906C23.18 26.912 23.406 27.088 23.406 27.352C23.772 29.684 24.82 30.828 29.648 30.828C33.474 30.828 35.114 29.992 35.114 28.012C35.114 26.868 34.658 26.032 28.692 25.46C23.726 24.974 20.63 23.92 20.63 20.09C20.63 16.524 23.726 14.41 28.92 14.41C34.75 14.41 37.62 16.348 37.984 20.574C37.9799 20.717 37.9317 20.8554 37.846 20.97C37.756 21.058 37.62 21.146 37.482 21.146H35.114C34.999 21.1432 34.888 21.103 34.7978 21.0316C34.7076 20.9602 34.6431 20.8613 34.614 20.75C34.066 18.33 32.654 17.536 28.92 17.536C24.728 17.536 24.228 18.944 24.228 20.002C24.228 21.278 24.82 21.674 30.468 22.378C36.07 23.082 38.712 24.094 38.712 27.878C38.666 31.754 35.388 33.954 29.602 33.954Z" fill="#1E1E1E"/>
</g>
<defs>
<clipPath id="clip0_85_179">
<rect width="48" height="48" fill="white"/>
</clipPath>
</defs>
</svg>
