<svg width="48" height="48" viewBox="0 0 48 48" fill="none" xmlns="http://www.w3.org/2000/svg">
<path d="M24 20.2201C26.06 20.2201 27.74 21.9001 27.74 24.0001C27.74 26.0001 26.06 27.7001 24 27.7001C21.94 27.7001 20.26 26.0001 20.26 24.0001C20.26 21.9001 21.94 20.2201 24 20.2201ZM14.74 40.0001C16 40.7601 18.76 39.6001 21.94 36.6001C20.9 35.4201 19.88 34.1401 18.92 32.8001C17.3083 32.6458 15.706 32.4055 14.12 32.0801C13.1 36.3601 13.48 39.3001 14.74 40.0001ZM16.16 28.5201L15.58 27.5001C15.36 28.0801 15.14 28.6601 15 29.2201C15.54 29.3401 16.14 29.4401 16.76 29.5401L16.16 28.5201ZM29.24 27.0001L30.86 24.0001L29.24 21.0001C28.64 19.9401 28 19.0001 27.42 18.0601C26.34 18.0001 25.2 18.0001 24 18.0001C22.8 18.0001 21.66 18.0001 20.58 18.0601C20 19.0001 19.36 19.9401 18.76 21.0001L17.14 24.0001L18.76 27.0001C19.36 28.0601 20 29.0001 20.58 29.9401C21.66 30.0001 22.8 30.0001 24 30.0001C25.2 30.0001 26.34 30.0001 27.42 29.9401C28 29.0001 28.64 28.0601 29.24 27.0001ZM24 13.5601C23.62 14.0001 23.22 14.4601 22.82 15.0001H25.18C24.78 14.4601 24.38 14.0001 24 13.5601ZM24 34.4401C24.38 34.0001 24.78 33.5401 25.18 33.0001H22.82C23.22 33.5401 23.62 34.0001 24 34.4401ZM33.24 8.00006C32 7.24006 29.24 8.40006 26.06 11.4001C27.1 12.5801 28.12 13.8601 29.08 15.2001C30.72 15.3601 32.34 15.6001 33.88 15.9201C34.9 11.6401 34.52 8.70006 33.24 8.00006ZM31.84 19.4801L32.42 20.5001C32.64 19.9201 32.86 19.3401 33 18.7801C32.46 18.6601 31.86 18.5601 31.24 18.4601L31.84 19.4801ZM34.74 5.38006C37.68 7.06006 38 11.4801 36.76 16.6401C41.84 18.1401 45.5 20.6201 45.5 24.0001C45.5 27.3801 41.84 29.8601 36.76 31.3601C38 36.5201 37.68 40.9401 34.74 42.6201C31.82 44.3001 27.84 42.3801 24 38.7201C20.16 42.3801 16.18 44.3001 13.24 42.6201C10.32 40.9401 10 36.5201 11.24 31.3601C6.16 29.8601 2.5 27.3801 2.5 24.0001C2.5 20.6201 6.16 18.1401 11.24 16.6401C10 11.4801 10.32 7.06006 13.24 5.38006C16.18 3.70006 20.16 5.62006 24 9.28006C27.84 5.62006 31.82 3.70006 34.74 5.38006ZM34.16 24.0001C34.84 25.5001 35.44 27.0001 35.94 28.5201C40.14 27.2601 42.5 25.4601 42.5 24.0001C42.5 22.5401 40.14 20.7401 35.94 19.4801C35.44 21.0001 34.84 22.5001 34.16 24.0001ZM13.84 24.0001C13.16 22.5001 12.56 21.0001 12.06 19.4801C7.86 20.7401 5.5 22.5401 5.5 24.0001C5.5 25.4601 7.86 27.2601 12.06 28.5201C12.56 27.0001 13.16 25.5001 13.84 24.0001ZM31.84 28.5201L31.24 29.5401C31.86 29.4401 32.46 29.3401 33 29.2201C32.86 28.6601 32.64 28.0801 32.42 27.5001L31.84 28.5201ZM26.06 36.6001C29.24 39.6001 32 40.7601 33.24 40.0001C34.52 39.3001 34.9 36.3601 33.88 32.0801C32.34 32.4001 30.72 32.6401 29.08 32.8001C28.12 34.1401 27.1 35.4201 26.06 36.6001ZM16.16 19.4801L16.76 18.4601C16.14 18.5601 15.54 18.6601 15 18.7801C15.14 19.3401 15.36 19.9201 15.58 20.5001L16.16 19.4801ZM21.94 11.4001C18.76 8.40006 16 7.24006 14.74 8.00006C13.48 8.70006 13.1 11.6401 14.12 15.9201C15.706 15.5946 17.3083 15.3543 18.92 15.2001C19.88 13.8601 20.9 12.5801 21.94 11.4001Z" fill="#1E1E1E"/>
</svg>
