<svg width="48" height="48" viewBox="0 0 48 48" fill="none" xmlns="http://www.w3.org/2000/svg">
<path d="M14.7879 14.62C14.1913 14.2197 13.6335 13.7644 13.1219 13.26C11.2959 11.44 10.3619 9.126 10.3619 6.124V4.974C13.3979 1.858 18.0779 0 23.6559 0C34.4439 0 40.6859 5.6 42.2259 13.48H32.4399C31.3599 10.372 28.6599 7.952 23.7359 7.952C18.8919 7.952 15.4639 10.504 14.7899 14.62H14.7879ZM9.36594 6.124C9.36594 12.596 13.4339 16.448 21.5779 18.478L30.2099 20.444C37.9179 22.184 42.6099 26.504 42.6099 33.544C42.6676 36.618 41.652 39.6159 39.7379 42.022C39.7379 35 36.0379 31.204 27.1179 28.922L18.6459 27.03C11.8599 25.51 6.62394 21.958 6.62394 14.31C6.59058 11.3508 7.55791 8.46683 9.36594 6.124ZM34.3599 32.968C33.7759 37.438 30.1759 39.958 24.9639 39.958C20.3359 39.958 16.8679 38.066 15.5579 33.978H5.38794C7.03594 42.88 14.4479 48 25.0379 48C30.6939 48 35.5919 46.26 38.7379 43.122V42.022C38.7379 38.702 37.8719 36.27 36.0539 34.39C35.5383 33.8611 34.9708 33.3853 34.3599 32.97V32.968Z" fill="#1E1E1E"/>
</svg>
