<svg width="126" height="126" viewBox="0 0 126 126" fill="none" xmlns="http://www.w3.org/2000/svg">
<rect width="126" height="126" fill="#1E1E1E"/>
<path d="M62.7891 125.537C97.4666 125.537 125.578 97.4343 125.578 62.7683C125.578 28.1023 97.4666 0 62.7891 0C28.1117 0 0 28.1023 0 62.7683C0 97.4343 28.1117 125.537 62.7891 125.537Z" fill="white"/>
<path d="M29.848 87V17.304H29.944L63.544 65.016L61.528 64.728L95.032 17.304H95.128V87H90.52V28.152L90.904 30.456L62.488 70.488H62.296L33.688 30.456L34.456 28.344V87H29.848ZM38.9729 44.84L64.1249 108.68L61.5329 108.296L86.1089 44.84H91.4849L62.4929 116.168L33.5009 44.84H38.9729Z" fill="#1E1E1E"/>
</svg>
